{
  "accessors": [
    {
      "bufferView": 2,
      "componentType": 5126,
      "count": 20471,
      "max": [
        -594.6170043945313,
        388.6700134277344,
        15.18649959564209
      ],
      "min": [
        -609.4000244140625,
        376.55499267578125,
        6.771500110626221
      ],
      "type": "VEC3"
    },
    {
      "bufferView": 2,
      "byteOffset": 245652,
      "componentType": 5126,
      "count": 20471,
      "max": [
        1.0,
        1.0,
        1.0
      ],
      "min": [
        -1.0,
        -1.0,
        -1.0
      ],
      "type": "VEC3"
    },
    {
      "bufferView": 1,
      "componentType": 5126,
      "count": 20471,
      "max": [
        2.2128899097442627,
        0.0004410149995237589
      ],
      "min": [
        0.0016169999726116657,
        -0.9990230202674866
      ],
      "type": "VEC2"
    },
    {
      "bufferView": 0,
      "componentType": 5125,
      "count": 55575,
      "type": "SCALAR"
    },
    {
      "bufferView": 2,
      "byteOffset": 491304,
      "componentType": 5126,
      "count": 12490,
      "max": [
        -588.9429931640625,
        391.0660095214844,
        16.692800521850586
      ],
      "min": [
        -612.4990234375,
        376.7099914550781,
        5.722049991163658e-06
      ],
      "type": "VEC3"
    },
    {
      "bufferView": 2,
      "byteOffset": 641184,
      "componentType": 5126,
      "count": 12490,
      "max": [
        1.0,
        1.0,
        1.0
      ],
      "min": [
        -1.0,
        -1.0,
        -1.0
      ],
      "type": "VEC3"
    },
    {
      "bufferView": 1,
      "byteOffset": 163768,
      "componentType": 5126,
      "count": 12490,
      "max": [
        1.999019980430603,
        -0.0021079799626022577
      ],
      "min": [
        0.001782999956049025,
        -1.2382800579071045
      ],
      "type": "VEC2"
    },
    {
      "bufferView": 0,
      "byteOffset": 222300,
      "componentType": 5125,
      "count": 30456,
      "type": "SCALAR"
    },
    {
      "bufferView": 2,
      "byteOffset": 791064,
      "componentType": 5126,
      "count": 11172,
      "max": [
        -595.9530029296875,
        388.4309997558594,
        13.207200050354004
      ],
      "min": [
        -606.4320068359375,
        383.35699462890625,
        7.109469890594482
      ],
      "type": "VEC3"
    },
    {
      "bufferView": 2,
      "byteOffset": 925128,
      "componentType": 5126,
      "count": 11172,
      "max": [
        1.0,
        1.0,
        0.996914267539978
      ],
      "min": [
        -1.0,
        -0.9737253189086914,
        -0.9195509552955627
      ],
      "type": "VEC3"
    },
    {
      "bufferView": 1,
      "byteOffset": 263688,
      "componentType": 5126,
      "count": 11172,
      "max": [
        2.9892098903656006,
        -0.013612999580800533
      ],
      "min": [
        2.000770092010498,
        -0.9961680173873901
      ],
      "type": "VEC2"
    },
    {
      "bufferView": 0,
      "byteOffset": 344124,
      "componentType": 5125,
      "count": 36891,
      "type": "SCALAR"
    }
  ],
  "asset": {
    "extras": {
      "author": "skibiditoilet78 (https://sketchfab.com/skibiditoilet78)",
      "license": "CC-BY-4.0 (http://creativecommons.org/licenses/by/4.0/)",
      "source": "https://sketchfab.com/3d-models/combine-console-cd72df29a214425ab9ea98672db89540",
      "title": "Combine Console"
    },
    "generator": "Sketchfab-16.59.0",
    "version": "2.0"
  },
  "bufferViews": [
    {
      "buffer": 0,
      "byteLength": 491688,
      "name": "floatBufferViews",
      "target": 34963
    },
    {
      "buffer": 0,
      "byteLength": 353064,
      "byteOffset": 491688,
      "byteStride": 8,
      "name": "floatBufferViews",
      "target": 34962
    },
    {
      "buffer": 0,
      "byteLength": 1059192,
      "byteOffset": 844752,
      "byteStride": 12,
      "name": "floatBufferViews",
      "target": 34962
    }
  ],
  "buffers": [
    {
      "byteLength": 1903944,
      "uri": "scene.bin"
    }
  ],
  "extensionsUsed": [
    "KHR_materials_specular"
  ],
  "images": [
    {
      "uri": "textures/Meshpart1Mtl_baseColor.png"
    },
    {
      "uri": "textures/Meshpart2Mtl_baseColor.png"
    },
    {
      "uri": "textures/Meshpart3Mtl_baseColor.png"
    }
  ],
  "materials": [
    {
      "doubleSided": true,
      "extensions": {
        "KHR_materials_specular": {
          "specularColorFactor": [
            1.0,
            1.0,
            1.0
          ],
          "specularFactor": 1.0
        }
      },
      "name": "Meshpart1Mtl",
      "pbrMetallicRoughness": {
        "baseColorTexture": {
          "index": 0
        }
      }
    },
    {
      "doubleSided": true,
      "extensions": {
        "KHR_materials_specular": {
          "specularColorFactor": [
            1.0,
            1.0,
            1.0
          ],
          "specularFactor": 1.0
        }
      },
      "name": "Meshpart2Mtl",
      "pbrMetallicRoughness": {
        "baseColorTexture": {
          "index": 1
        }
      }
    },
    {
      "doubleSided": true,
      "extensions": {
        "KHR_materials_specular": {
          "specularColorFactor": [
            1.0,
            1.0,
            1.0
          ],
          "specularFactor": 0.08990503590106179
        }
      },
      "name": "Meshpart3Mtl",
      "pbrMetallicRoughness": {
        "baseColorTexture": {
          "index": 2
        },
        "metallicFactor": 0.0,
        "roughnessFactor": 0.0
      }
    }
  ],
  "meshes": [
    {
      "name": "Object_0",
      "primitives": [
        {
          "attributes": {
            "NORMAL": 1,
            "POSITION": 0,
            "TEXCOORD_0": 2
          },
          "indices": 3,
          "material": 0,
          "mode": 4
        }
      ]
    },
    {
      "name": "Object_1",
      "primitives": [
        {
          "attributes": {
            "NORMAL": 5,
            "POSITION": 4,
            "TEXCOORD_0": 6
          },
          "indices": 7,
          "material": 1,
          "mode": 4
        }
      ]
    },
    {
      "name": "Object_2",
      "primitives": [
        {
          "attributes": {
            "NORMAL": 9,
            "POSITION": 8,
            "TEXCOORD_0": 10
          },
          "indices": 11,
          "material": 2,
          "mode": 4
        }
      ]
    }
  ],
  "nodes": [
    {
      "children": [
        1
      ],
      "matrix": [
        1.0,
        0.0,
        0.0,
        0.0,
        0.0,
        2.220446049250313e-16,
        -1.0,
        0.0,
        0.0,
        1.0,
        2.220446049250313e-16,
        0.0,
        0.0,
        0.0,
        0.0,
        1.0
      ],
      "name": "Sketchfab_model"
    },
    {
      "children": [
        2,
        3,
        4
      ],
      "name": "combine conseloe.obj.cleaner.materialmerger.gles"
    },
    {
      "mesh": 0,
      "name": "Object_2"
    },
    {
      "mesh": 1,
      "name": "Object_3"
    },
    {
      "mesh": 2,
      "name": "Object_4"
    }
  ],
  "samplers": [
    {
      "magFilter": 9729,
      "minFilter": 9987,
      "wrapS": 10497,
      "wrapT": 10497
    }
  ],
  "scene": 0,
  "scenes": [
    {
      "name": "Sketchfab_Scene",
      "nodes": [
        0
      ]
    }
  ],
  "textures": [
    {
      "sampler": 0,
      "source": 0
    },
    {
      "sampler": 0,
      "source": 1
    },
    {
      "sampler": 0,
      "source": 2
    }
  ]
}
