{
  "accessors": [
    {
      "bufferView": 2,
      "componentType": 5126,
      "count": 4887,
      "max": [
        1.5580534934997559,
        3.620415687561035,
        0.9569517374038696
      ],
      "min": [
        -1.5580534934997559,
        -0.8992821574211121,
        -0.9569516181945801
      ],
      "type": "VEC3"
    },
    {
      "bufferView": 2,
      "byteOffset": 58644,
      "componentType": 5126,
      "count": 4887,
      "max": [
        1.0,
        1.0,
        1.0
      ],
      "min": [
        -1.0,
        -1.0,
        -1.0
      ],
      "type": "VEC3"
    },
    {
      "bufferView": 3,
      "componentType": 5126,
      "count": 4887,
      "max": [
        0.9999387264251709,
        0.9999989867210388,
        0.9999999403953552,
        1.0
      ],
      "min": [
        -0.999970555305481,
        -0.9999557733535767,
        -1.0,
        1.0
      ],
      "type": "VEC4"
    },
    {
      "bufferView": 1,
      "componentType": 5126,
      "count": 4887,
      "max": [
        0.9994967579841614,
        0.992768406867981
      ],
      "min": [
        0.0005032049957662821,
        0.0005032049957662821
      ],
      "type": "VEC2"
    },
    {
      "bufferView": 1,
      "byteOffset": 39096,
      "componentType": 5126,
      "count": 4887,
      "max": [
        0.9994967579841614,
        0.992768406867981
      ],
      "min": [
        0.0005032049957662821,
        0.0005032049957662821
      ],
      "type": "VEC2"
    },
    {
      "bufferView": 1,
      "byteOffset": 78192,
      "componentType": 5126,
      "count": 4887,
      "max": [
        0.9994967579841614,
        0.992768406867981
      ],
      "min": [
        0.0005032049957662821,
        0.0005032049957662821
      ],
      "type": "VEC2"
    },
    {
      "bufferView": 1,
      "byteOffset": 117288,
      "componentType": 5126,
      "count": 4887,
      "max": [
        0.9994967579841614,
        0.992768406867981
      ],
      "min": [
        0.0005032049957662821,
        0.0005032049957662821
      ],
      "type": "VEC2"
    },
    {
      "bufferView": 0,
      "componentType": 5125,
      "count": 22224,
      "type": "SCALAR"
    }
  ],
  "asset": {
    "extras": {
      "author": "Incg5764 (https://sketchfab.com/incg5764)",
      "license": "CC-BY-4.0 (http://creativecommons.org/licenses/by/4.0/)",
      "source": "https://sketchfab.com/3d-models/golden-trophy-79389eecca164e27a75d362fbbecfe3b",
      "title": "Golden Trophy"
    },
    "generator": "Sketchfab-14.32.1",
    "version": "2.0"
  },
  "bufferViews": [
    {
      "buffer": 0,
      "byteLength": 88896,
      "name": "floatBufferViews",
      "target": 34963
    },
    {
      "buffer": 0,
      "byteLength": 156384,
      "byteOffset": 88896,
      "byteStride": 8,
      "name": "floatBufferViews",
      "target": 34962
    },
    {
      "buffer": 0,
      "byteLength": 117288,
      "byteOffset": 245280,
      "byteStride": 12,
      "name": "floatBufferViews",
      "target": 34962
    },
    {
      "buffer": 0,
      "byteLength": 78192,
      "byteOffset": 362568,
      "byteStride": 16,
      "name": "floatBufferViews",
      "target": 34962
    }
  ],
  "buffers": [
    {
      "byteLength": 440760,
      "uri": "gltf.bin"
    }
  ],
  "images": [
    {
      "uri": "textures/Material_baseColor.jpeg"
    },
    {
      "uri": "textures/Material_metallicRoughness.png"
    },
    {
      "uri": "textures/Material_normal.png"
    }
  ],
  "materials": [
    {
      "doubleSided": true,
      "name": "Material",
      "normalTexture": {
        "index": 2
      },
      "pbrMetallicRoughness": {
        "baseColorTexture": {
          "index": 0
        },
        "metallicRoughnessTexture": {
          "index": 1
        },
        "roughnessFactor": 0.6628591629993539
      }
    }
  ],
  "meshes": [
    {
      "name": "Object_0",
      "primitives": [
        {
          "attributes": {
            "NORMAL": 1,
            "POSITION": 0,
            "TANGENT": 2,
            "TEXCOORD_0": 3,
            "TEXCOORD_1": 4,
            "TEXCOORD_2": 5,
            "TEXCOORD_3": 6
          },
          "indices": 7,
          "material": 0,
          "mode": 4
        }
      ]
    }
  ],
  "nodes": [
    {
      "children": [
        1
      ],
      "matrix": [
        1.0,
        0.0,
        0.0,
        0.0,
        0.0,
        2.220446049250313e-16,
        -1.0,
        0.0,
        0.0,
        1.0,
        2.220446049250313e-16,
        0.0,
        0.0,
        0.0,
        0.0,
        1.0
      ],
      "name": "Sketchfab_model"
    },
    {
      "children": [
        2
      ],
      "name": "root"
    },
    {
      "children": [
        3
      ],
      "matrix": [
        1.0,
        0.0,
        0.0,
        0.0,
        0.0,
        2.220446049250313e-16,
        1.0,
        0.0,
        0.0,
        -1.0,
        2.220446049250313e-16,
        0.0,
        0.0,
        0.0,
        0.0,
        1.0
      ],
      "name": "GLTF_SceneRootNode"
    },
    {
      "children": [
        4
      ],
      "name": "trophy_0"
    },
    {
      "mesh": 0,
      "name": "Object_4"
    }
  ],
  "samplers": [
    {
      "magFilter": 9729,
      "minFilter": 9987,
      "wrapS": 10497,
      "wrapT": 10497
    }
  ],
  "scene": 0,
  "scenes": [
    {
      "name": "Sketchfab_Scene",
      "nodes": [
        0
      ]
    }
  ],
  "textures": [
    {
      "sampler": 0,
      "source": 0
    },
    {
      "sampler": 0,
      "source": 1
    },
    {
      "sampler": 0,
      "source": 2
    }
  ]
}
